<mxfile><diagram><mxGraphModel><root><mxCell id="0" /><mxCell id="1" parent="0" /><mxCell id="edge1" style="rounded=1;html=1;exitX=0.5;exitY=0.996;entryX=0;entryY=0.371;jettySize=auto;curved=0;endArrow=block;dashed=0;endFill=1;" parent="1" edge="1" source="node1" target="node11"><mxGeometry as="geometry" relative="1"><Array as="points"><mxPoint x="467.11" y="737.7099999999998" /><mxPoint x="643.0" y="1042.4699999999998" /><mxPoint x="643.0" y="1042.4699999999998" /><mxPoint x="1071.28" y="1268.3299999999997" /></Array></mxGeometry></mxCell><mxCell id="edge2" style="rounded=1;html=1;exitX=0.5;exitY=1;entryX=0.5;entryY=0;jettySize=auto;curved=0;endArrow=block;dashed=0;endFill=1;" parent="1" edge="1" source="node3" target="node2"><mxGeometry as="geometry" relative="1" /></mxCell><mxCell id="edge3" style="rounded=1;html=1;exitX=0.288;exitY=1;entryX=0.702;entryY=0.0235;jettySize=auto;curved=0;endArrow=block;dashed=0;endFill=1;" parent="1" edge="1" source="node4" target="node2"><mxGeometry as="geometry" relative="1" /></mxCell><mxCell id="edge4" style="rounded=1;html=1;exitX=0.811;exitY=1;entryX=0.161;entryY=0.11;jettySize=auto;curved=0;endArrow=block;dashed=0;endFill=1;" parent="1" edge="1" source="node5" target="node2"><mxGeometry as="geometry" relative="1"><Array as="points"><mxPoint x="1146.76" y="318.3699999999999" /><mxPoint x="1200.0" y="361.25" /><mxPoint x="1200.0" y="361.25" /><mxPoint x="1630.0" y="397.25" /><mxPoint x="1630.0" y="397.25" /><mxPoint x="1742.27" y="468.2399999999998" /></Array></mxGeometry></mxCell><mxCell id="edge5" style="rounded=1;html=1;exitX=0.382;exitY=1;entryX=0.62;entryY=0;jettySize=auto;curved=0;endArrow=block;dashed=0;endFill=1;" parent="1" edge="1" source="node6" target="node11"><mxGeometry as="geometry" relative="1" /></mxCell><mxCell id="edge6" style="rounded=1;html=1;exitX=0.612;exitY=1;entryX=0;entryY=0.244;jettySize=auto;curved=0;endArrow=block;dashed=0;endFill=1;" parent="1" edge="1" source="node6" target="node21"><mxGeometry as="geometry" relative="1"><Array as="points"><mxPoint x="1507.62" y="865.7499999999998" /><mxPoint x="1629.0" y="1042.4699999999998" /><mxPoint x="1629.0" y="1042.4699999999998" /><mxPoint x="2860.0" y="1078.4699999999998" /><mxPoint x="2860.0" y="1078.4699999999998" /><mxPoint x="3446.36" y="1273.3999999999999" /></Array></mxGeometry></mxCell><mxCell id="edge7" style="rounded=1;html=1;exitX=0.824;exitY=1;entryX=0.218;entryY=0.0666;jettySize=auto;curved=0;endArrow=block;dashed=0;endFill=1;" parent="1" edge="1" source="node7" target="node2"><mxGeometry as="geometry" relative="1" /></mxCell><mxCell id="edge8" style="rounded=1;html=1;exitX=0.617;exitY=1;entryX=0.381;entryY=0;jettySize=auto;curved=0;endArrow=block;dashed=0;endFill=1;" parent="1" edge="1" source="node8" target="node11"><mxGeometry as="geometry" relative="1" /></mxCell><mxCell id="edge9" style="rounded=1;html=1;exitX=0.957;exitY=1;entryX=0.375;entryY=0;jettySize=auto;curved=0;endArrow=block;dashed=0;endFill=1;" parent="1" edge="1" source="node9" target="node6"><mxGeometry as="geometry" relative="1"><Array as="points"><mxPoint x="303.54" y="349.6199999999999" /><mxPoint x="326.0" y="361.25" /><mxPoint x="326.0" y="361.25" /><mxPoint x="1321.0" y="397.25" /><mxPoint x="1321.0" y="397.25" /><mxPoint x="1438.54" y="563.7599999999998" /></Array></mxGeometry></mxCell><mxCell id="edge10" style="rounded=1;html=1;exitX=0.958;exitY=1;entryX=0.104;entryY=0.162;jettySize=auto;curved=0;endArrow=block;dashed=0;endFill=1;" parent="1" edge="1" source="node9" target="node11"><mxGeometry as="geometry" relative="1"><Array as="points"><mxPoint x="303.85" y="349.62999999999965" /><mxPoint x="326.0" y="361.25" /><mxPoint x="326.0" y="361.25" /><mxPoint x="1031.0" y="397.25" /><mxPoint x="1031.0" y="397.25" /><mxPoint x="1051.0" y="1042.4699999999998" /><mxPoint x="1051.0" y="1042.4699999999998" /><mxPoint x="1126.97" y="1161.3199999999997" /></Array></mxGeometry></mxCell><mxCell id="edge11" style="rounded=1;html=1;exitX=0.883;exitY=1;entryX=0.369;entryY=0;jettySize=auto;curved=0;endArrow=block;dashed=0;endFill=1;" parent="1" edge="1" source="node10" target="node6"><mxGeometry as="geometry" relative="1"><Array as="points"><mxPoint x="907.82" y="334.3199999999997" /><mxPoint x="948.0" y="361.25" /><mxPoint x="948.0" y="361.25" /><mxPoint x="1321.0" y="397.25" /><mxPoint x="1321.0" y="397.25" /><mxPoint x="1436.84" y="563.8299999999999" /></Array></mxGeometry></mxCell><mxCell id="edge12" style="rounded=1;html=1;exitX=0.988;exitY=0.386;entryX=0.0858;entryY=0.182;jettySize=auto;curved=0;endArrow=block;dashed=0;endFill=1;" parent="1" edge="1" source="node11" target="node26"><mxGeometry as="geometry" relative="1"><Array as="points"><mxPoint x="1579.76" y="1276.0599999999997" /><mxPoint x="2869.0" y="1060.4699999999998" /><mxPoint x="2869.0" y="1060.4699999999998" /><mxPoint x="4940.0" y="1060.4699999999998" /><mxPoint x="4940.0" y="1060.4699999999998" /><mxPoint x="5185.48" y="1177.5599999999997" /></Array></mxGeometry></mxCell><mxCell id="edge13" style="rounded=1;html=1;exitX=0.99;exitY=0.397;entryX=0.5;entryY=1;jettySize=auto;curved=0;endArrow=block;dashed=0;endFill=1;" parent="1" edge="1" source="node11" target="node29"><mxGeometry as="geometry" relative="1"><Array as="points"><mxPoint x="1580.8" y="1281.6599999999999" /><mxPoint x="2860.0" y="1078.4699999999998" /><mxPoint x="2860.0" y="1078.4699999999998" /><mxPoint x="3805.0" y="1042.4699999999998" /><mxPoint x="3805.0" y="1042.4699999999998" /><mxPoint x="3902.17" y="820.8999999999999" /></Array></mxGeometry></mxCell><mxCell id="edge14" style="rounded=1;html=1;exitX=0.5;exitY=1;entryX=0;entryY=0.5;jettySize=auto;curved=0;endArrow=block;dashed=0;endFill=1;" parent="1" edge="1" source="node12" target="node11"><mxGeometry as="geometry" relative="1"><Array as="points"><mxPoint x="170.67" y="846.0299999999997" /><mxPoint x="281.0" y="1042.4699999999998" /><mxPoint x="281.0" y="1042.4699999999998" /><mxPoint x="1063.26" y="1322.9799999999998" /></Array></mxGeometry></mxCell><mxCell id="edge15" style="rounded=1;html=1;exitX=0.78;exitY=1;entryX=0.118;entryY=0.146;jettySize=auto;curved=0;endArrow=block;dashed=0;endFill=1;" parent="1" edge="1" source="node13" target="node11"><mxGeometry as="geometry" relative="1"><Array as="points"><mxPoint x="940.57" y="904.9799999999998" /><mxPoint x="1036.0" y="1042.4699999999998" /><mxPoint x="1036.0" y="1042.4699999999998" /><mxPoint x="1134.49" y="1153.0299999999997" /></Array></mxGeometry></mxCell><mxCell id="edge16" style="rounded=1;html=1;exitX=1;exitY=0.988;entryX=0.373;entryY=0;jettySize=auto;curved=0;endArrow=block;dashed=0;endFill=1;" parent="1" edge="1" source="node14" target="node6"><mxGeometry as="geometry" relative="1"><Array as="points"><mxPoint x="655.72" y="357.48" /><mxPoint x="664.0" y="361.25" /><mxPoint x="664.0" y="361.25" /><mxPoint x="1321.0" y="397.25" /><mxPoint x="1321.0" y="397.25" /><mxPoint x="1437.91" y="563.4899999999998" /></Array></mxGeometry></mxCell><mxCell id="edge17" style="rounded=1;html=1;exitX=1;exitY=0.5;entryX=0.5;entryY=0;jettySize=auto;curved=1;endArrow=block;dashed=0;endFill=1;" parent="1" edge="1" source="node15" target="node38"><mxGeometry as="geometry" relative="1"><Array as="points"><mxPoint x="2848.73" y="203.8399999999997" /><mxPoint x="6719.0" y="397.25" /><mxPoint x="6719.0" y="397.25" /><mxPoint x="7086.56" y="1695.9099999999999" /></Array></mxGeometry></mxCell><mxCell id="edge18" style="rounded=1;html=1;exitX=0.929;exitY=1;entryX=0.258;entryY=0;jettySize=auto;curved=0;endArrow=block;dashed=0;endFill=1;" parent="1" edge="1" source="node16" target="node38"><mxGeometry as="geometry" relative="1"><Array as="points"><mxPoint x="2577.48" y="345.1899999999996" /><mxPoint x="2607.0" y="361.25" /><mxPoint x="2607.0" y="361.25" /><mxPoint x="6390.0" y="397.25" /><mxPoint x="6390.0" y="397.25" /><mxPoint x="7026.33" y="1705.9299999999998" /></Array></mxGeometry></mxCell><mxCell id="edge19" style="rounded=1;html=1;exitX=0.234;exitY=0.924;entryX=1;entryY=0.5;jettySize=auto;curved=0;endArrow=block;dashed=0;endFill=1;" parent="1" edge="1" source="node17" target="node11"><mxGeometry as="geometry" relative="1"><Array as="points"><mxPoint x="2523.38" y="802.0899999999997" /><mxPoint x="2293.0" y="1042.4699999999998" /><mxPoint x="2293.0" y="1042.4699999999998" /><mxPoint x="1594.08" y="1294.5599999999997" /></Array></mxGeometry></mxCell><mxCell id="edge20" style="rounded=1;html=1;exitX=0.78;exitY=0.917;entryX=0;entryY=0.356;jettySize=auto;curved=0;endArrow=block;dashed=0;endFill=1;" parent="1" edge="1" source="node17" target="node21"><mxGeometry as="geometry" relative="1"><Array as="points"><mxPoint x="2629.26" y="800.6999999999998" /><mxPoint x="2860.0" y="1042.4699999999998" /><mxPoint x="2860.0" y="1042.4699999999998" /><mxPoint x="3445.95" y="1300.2799999999997" /></Array></mxGeometry></mxCell><mxCell id="edge21" style="rounded=1;html=1;exitX=0.622;exitY=0.986;entryX=0.365;entryY=0;jettySize=auto;curved=0;endArrow=block;dashed=0;endFill=1;" parent="1" edge="1" source="node18" target="node6"><mxGeometry as="geometry" relative="1" /></mxCell><mxCell id="edge22" style="rounded=1;html=1;exitX=0.785;exitY=0.911;entryX=1;entryY=0.163;jettySize=auto;curved=0;endArrow=block;dashed=0;endFill=1;" parent="1" edge="1" source="node18" target="node35"><mxGeometry as="geometry" relative="1"><Array as="points"><mxPoint x="1421.09" y="312.3199999999997" /><mxPoint x="1488.0" y="361.25" /><mxPoint x="1488.0" y="361.25" /><mxPoint x="6316.0" y="397.25" /><mxPoint x="6316.0" y="397.25" /><mxPoint x="6316.0" y="1042.4699999999998" /><mxPoint x="6316.0" y="1042.4699999999998" /><mxPoint x="6108.55" y="1269.4999999999998" /></Array></mxGeometry></mxCell><mxCell id="edge23" style="rounded=1;html=1;exitX=0.32;exitY=0.967;entryX=0.688;entryY=0.0127;jettySize=auto;curved=0;endArrow=block;dashed=0;endFill=1;" parent="1" edge="1" source="node19" target="node26"><mxGeometry as="geometry" relative="1" /></mxCell><mxCell id="edge24" style="rounded=1;html=1;exitX=0.317;exitY=1;entryX=1;entryY=0.0615;jettySize=auto;curved=0;endArrow=block;dashed=0;endFill=1;" parent="1" edge="1" source="node20" target="node25"><mxGeometry as="geometry" relative="1"><Array as="points"><mxPoint x="5226.88" y="859.9699999999998" /><mxPoint x="5129.0" y="1042.4699999999998" /><mxPoint x="5129.0" y="1042.4699999999998" /><mxPoint x="4948.7" y="1235.11" /></Array></mxGeometry></mxCell><mxCell id="edge25" style="rounded=1;html=1;exitX=1;exitY=0.938;entryX=0;entryY=0.0365;jettySize=auto;curved=0;endArrow=block;dashed=0;endFill=1;" parent="1" edge="1" source="node21" target="node22"><mxGeometry as="geometry" relative="1" /></mxCell><mxCell id="edge26" style="rounded=1;html=1;exitX=0.5;exitY=1;entryX=0.5;entryY=0;jettySize=auto;curved=0;endArrow=block;dashed=0;endFill=1;" parent="1" edge="1" source="node22" target="node37"><mxGeometry as="geometry" relative="1" /></mxCell><mxCell id="edge27" style="rounded=1;html=1;exitX=0.389;exitY=1;entryX=1;entryY=0.102;jettySize=auto;curved=0;endArrow=block;dashed=0;endFill=1;" parent="1" edge="1" source="node23" target="node21"><mxGeometry as="geometry" relative="1"><Array as="points"><mxPoint x="4366.03" y="859.2499999999998" /><mxPoint x="4249.0" y="1042.4699999999998" /><mxPoint x="4249.0" y="1042.4699999999998" /><mxPoint x="4007.0" y="1078.4699999999998" /><mxPoint x="4007.0" y="1078.4699999999998" /><mxPoint x="3704.48" y="1239.5399999999997" /></Array></mxGeometry></mxCell><mxCell id="edge28" style="rounded=1;html=1;exitX=0.685;exitY=1;entryX=0;entryY=0.0206;jettySize=auto;curved=0;endArrow=block;dashed=0;endFill=1;" parent="1" edge="1" source="node23" target="node25"><mxGeometry as="geometry" relative="1"><Array as="points"><mxPoint x="4448.56" y="859.3399999999997" /><mxPoint x="4545.0" y="1042.4699999999998" /><mxPoint x="4545.0" y="1042.4699999999998" /><mxPoint x="4705.32" y="1225.8299999999997" /></Array></mxGeometry></mxCell><mxCell id="edge29" style="rounded=1;html=1;exitX=0.264;exitY=1;entryX=0.805;entryY=0;jettySize=auto;curved=0;endArrow=block;dashed=0;endFill=1;" parent="1" edge="1" source="node24" target="node22"><mxGeometry as="geometry" relative="1"><Array as="points"><mxPoint x="4631.84" y="866.8099999999997" /><mxPoint x="4545.0" y="1042.4699999999998" /><mxPoint x="4545.0" y="1042.4699999999998" /><mxPoint x="4245.0" y="1598.62" /><mxPoint x="4245.0" y="1598.62" /><mxPoint x="4204.89" y="1670.2699999999998" /></Array></mxGeometry></mxCell><mxCell id="edge30" style="rounded=1;html=1;exitX=0.602;exitY=1;entryX=0.388;entryY=0;jettySize=auto;curved=0;endArrow=block;dashed=0;endFill=1;" parent="1" edge="1" source="node24" target="node25"><mxGeometry as="geometry" relative="1" /></mxCell><mxCell id="edge31" style="rounded=1;html=1;exitX=0.919;exitY=1;entryX=0.268;entryY=0;jettySize=auto;curved=0;endArrow=block;dashed=0;endFill=1;" parent="1" edge="1" source="node25" target="node42"><mxGeometry as="geometry" relative="1"><Array as="points"><mxPoint x="4922.0" y="1448.2699999999998" /><mxPoint x="5134.0" y="1598.62" /><mxPoint x="5134.0" y="1598.62" /><mxPoint x="6319.0" y="1606.62" /><mxPoint x="6319.0" y="1606.62" /><mxPoint x="6400.45" y="1686.4899999999998" /></Array></mxGeometry></mxCell><mxCell id="edge32" style="rounded=1;html=1;exitX=0.5;exitY=0;entryX=0.961;entryY=1;jettySize=auto;curved=1;endArrow=block;dashed=0;endFill=1;" parent="1" edge="1" source="node27" target="node16"><mxGeometry as="geometry" relative="1"><Array as="points"><mxPoint x="4973.67" y="592.23" /><mxPoint x="4857.0" y="397.25" /><mxPoint x="4857.0" y="397.25" /><mxPoint x="2607.0" y="361.25" /><mxPoint x="2607.0" y="361.25" /><mxPoint x="2586.48" y="350.7199999999998" /></Array></mxGeometry></mxCell><mxCell id="edge33" style="rounded=1;html=1;exitX=1;exitY=0.81;entryX=0.327;entryY=0;jettySize=auto;curved=0;endArrow=block;dashed=0;endFill=1;" parent="1" edge="1" source="node28" target="node38"><mxGeometry as="geometry" relative="1"><Array as="points"><mxPoint x="4236.65" y="1403.0399999999997" /><mxPoint x="4705.0" y="1598.62" /><mxPoint x="4705.0" y="1598.62" /><mxPoint x="6962.0" y="1606.62" /><mxPoint x="6962.0" y="1606.62" /><mxPoint x="7040.21" y="1700.8799999999999" /></Array></mxGeometry></mxCell><mxCell id="edge34" style="rounded=1;html=1;exitX=0.638;exitY=1;entryX=0.256;entryY=0;jettySize=auto;curved=0;endArrow=block;dashed=0;endFill=1;" parent="1" edge="1" source="node29" target="node28"><mxGeometry as="geometry" relative="1"><Array as="points"><mxPoint x="3928.92" y="810.3999999999999" /><mxPoint x="4003.0" y="1042.4699999999998" /><mxPoint x="4003.0" y="1042.4699999999998" /><mxPoint x="4072.14" y="1213.7199999999998" /></Array></mxGeometry></mxCell><mxCell id="edge35" style="rounded=1;html=1;exitX=0.5;exitY=0;entryX=0.899;entryY=0.172;jettySize=auto;curved=1;endArrow=block;dashed=0;endFill=1;" parent="1" edge="1" source="node30" target="node2"><mxGeometry as="geometry" relative="1"><Array as="points"><mxPoint x="4116.36" y="605.5499999999997" /><mxPoint x="3994.0" y="379.25" /><mxPoint x="3994.0" y="379.25" /><mxPoint x="2478.0" y="379.25" /><mxPoint x="2478.0" y="379.25" /><mxPoint x="2218.75" y="508.03999999999996" /></Array></mxGeometry></mxCell><mxCell id="edge36" style="rounded=1;html=1;exitX=0.5;exitY=1;entryX=0.5;entryY=0;jettySize=auto;curved=0;endArrow=block;dashed=0;endFill=1;" parent="1" edge="1" source="node30" target="node28"><mxGeometry as="geometry" relative="1" /></mxCell><mxCell id="edge37" style="rounded=1;html=1;exitX=0.5;exitY=1;entryX=0.5;entryY=0;jettySize=auto;curved=0;endArrow=block;dashed=0;endFill=1;" parent="1" edge="1" source="node31" target="node21"><mxGeometry as="geometry" relative="1" /></mxCell><mxCell id="edge38" style="rounded=1;html=1;exitX=0.5;exitY=1;entryX=0.5;entryY=0;jettySize=auto;curved=0;endArrow=block;dashed=0;endFill=1;" parent="1" edge="1" source="node32" target="node35"><mxGeometry as="geometry" relative="1" /></mxCell><mxCell id="edge39" style="rounded=1;html=1;exitX=0.231;exitY=0.923;entryX=1;entryY=0.5;jettySize=auto;curved=0;endArrow=block;dashed=0;endFill=1;" parent="1" edge="1" source="node33" target="node11"><mxGeometry as="geometry" relative="1"><Array as="points"><mxPoint x="2987.06" y="930.2099999999998" /><mxPoint x="2860.0" y="1042.4699999999998" /><mxPoint x="2860.0" y="1042.4699999999998" /><mxPoint x="1595.59" y="1305.2399999999998" /></Array></mxGeometry></mxCell><mxCell id="edge40" style="rounded=1;html=1;exitX=0.5;exitY=1;entryX=0.5;entryY=0;jettySize=auto;curved=0;endArrow=block;dashed=0;endFill=1;" parent="1" edge="1" source="node34" target="node21"><mxGeometry as="geometry" relative="1" /></mxCell><mxCell id="edge41" style="rounded=1;html=1;exitX=0.769;exitY=1;entryX=0.243;entryY=0.021;jettySize=auto;curved=0;endArrow=block;dashed=0;endFill=1;" parent="1" edge="1" source="node36" target="node41"><mxGeometry as="geometry" relative="1" /></mxCell><mxCell id="edge42" style="rounded=1;html=1;exitX=0.5;exitY=1;entryX=0.5;entryY=0;jettySize=auto;curved=0;endArrow=block;dashed=0;endFill=1;" parent="1" edge="1" source="node40" target="node39"><mxGeometry as="geometry" relative="1" /></mxCell><mxCell id="edge43" style="rounded=1;html=1;exitX=0.615;exitY=1;entryX=0.381;entryY=0;jettySize=auto;curved=0;endArrow=block;dashed=0;endFill=1;" parent="1" edge="1" source="node42" target="node40"><mxGeometry as="geometry" relative="1" /></mxCell><mxCell id="node1" value="&lt;p style='margin:0px;text-align:center;margin-top:4px;;font-size:10.0px;font-family:Times,serif;color:#000000;'&gt;Fragmented ePMO Functions&lt;/p&gt;" style="rhombus;verticalAlign=top;align=left;overflow=fill;html=1;rounded=0;shadow=0;comic=0;labelBackgroundColor=none;strokeColor=black;strokeWidth=1;fillColor=#ffffff;" parent="1" vertex="1"><mxGeometry x="290.22" y="701.8599999999999" width="343.55999999999995" height="36.0" as="geometry" /></mxCell><mxCell id="node11" value="&lt;p style='margin:0px;text-align:center;margin-top:4px;;font-size:10.0px;font-family:Times,serif;color:#000000;'&gt;3.1 Establish a people-focused ePMO and a Culture of excellence&lt;/p&gt;" style="ellipse;aspect=fixed;verticalAlign=top;align=left;overflow=fill;html=1;rounded=0;shadow=0;comic=0;labelBackgroundColor=none;strokeColor=#000000;strokeWidth=1;fillColor=#ffffff;" parent="1" vertex="1"><mxGeometry x="1073.93" y="1078.4799999999998" width="512.14" height="512.14" as="geometry" /></mxCell><mxCell id="node2" value="&lt;p style='margin:0px;text-align:center;margin-top:4px;;font-size:10.0px;font-family:Times,serif;color:#000000;'&gt;1.1 Position the PMO as a Strategic Partner Driving value-focused Project Delivery&lt;/p&gt;" style="ellipse;aspect=fixed;verticalAlign=top;align=left;overflow=fill;html=1;rounded=0;shadow=0;comic=0;labelBackgroundColor=none;strokeColor=#000000;strokeWidth=1;fillColor=#ffffff;" parent="1" vertex="1"><mxGeometry x="1638.3899999999999" y="397.2499999999999" width="645.22" height="645.22" as="geometry" /></mxCell><mxCell id="node3" value="&lt;p style='margin:0px;text-align:center;margin-top:4px;;font-size:10.0px;font-family:Times,serif;color:#000000;'&gt;1.1.1 Develop a Strategic Alignment Framework&lt;/p&gt;" style="aspect=fixed;verticalAlign=top;align=left;overflow=fill;html=1;rounded=0;shadow=0;comic=0;labelBackgroundColor=none;strokeColor=black;strokeWidth=1;fillColor=#ffffff;" parent="1" vertex="1"><mxGeometry x="1768.5" y="59.5" width="283.0" height="283.0" as="geometry" /></mxCell><mxCell id="node4" value="&lt;p style='margin:0px;text-align:center;margin-top:4px;;font-size:10.0px;font-family:Times,serif;color:#000000;'&gt;1.1.2 Define a Value-driven Approach&lt;/p&gt;" style="aspect=fixed;verticalAlign=top;align=left;overflow=fill;html=1;rounded=0;shadow=0;comic=0;labelBackgroundColor=none;strokeColor=black;strokeWidth=1;fillColor=#ffffff;" parent="1" vertex="1"><mxGeometry x="2069.5" y="89.5" width="223.0" height="223.0" as="geometry" /></mxCell><mxCell id="node5" value="&lt;p style='margin:0px;text-align:center;margin-top:4px;;font-size:10.0px;font-family:Times,serif;color:#000000;'&gt;1.1.3 Enhance Stakeholder Engagement&lt;/p&gt;" style="aspect=fixed;verticalAlign=top;align=left;overflow=fill;html=1;rounded=0;shadow=0;comic=0;labelBackgroundColor=none;strokeColor=black;strokeWidth=1;fillColor=#ffffff;" parent="1" vertex="1"><mxGeometry x="956.88" y="83.87999999999965" width="234.2399999999999" height="234.25" as="geometry" /></mxCell><mxCell id="node6" value="&lt;p style='margin:0px;text-align:center;margin-top:4px;;font-size:10.0px;font-family:Times,serif;color:#000000;'&gt;1.1.4 Streamline Governance and Communication&lt;/p&gt;" style="aspect=fixed;verticalAlign=top;align=left;overflow=fill;html=1;rounded=0;shadow=0;comic=0;labelBackgroundColor=none;strokeColor=black;strokeWidth=1;fillColor=#ffffff;" parent="1" vertex="1"><mxGeometry x="1329.38" y="574.2399999999998" width="291.2399999999998" height="291.25" as="geometry" /></mxCell><mxCell id="node21" value="&lt;p style='margin:0px;text-align:center;margin-top:4px;;font-size:10.0px;font-family:Times,serif;color:#000000;'&gt;4.1.2 Develop a Governance Framework&lt;/p&gt;" style="aspect=fixed;verticalAlign=top;align=left;overflow=fill;html=1;rounded=0;shadow=0;comic=0;labelBackgroundColor=none;strokeColor=black;strokeWidth=1;fillColor=#ffffff;" parent="1" vertex="1"><mxGeometry x="3456.62" y="1215.1699999999998" width="238.76000000000022" height="238.75" as="geometry" /></mxCell><mxCell id="node7" value="&lt;p style='margin:0px;text-align:center;margin-top:4px;;font-size:10.0px;font-family:Times,serif;color:#000000;'&gt;2.1.3 Foster a Productive and Agile Culture&lt;/p&gt;" style="aspect=fixed;verticalAlign=top;align=left;overflow=fill;html=1;rounded=0;shadow=0;comic=0;labelBackgroundColor=none;strokeColor=black;strokeWidth=1;fillColor=#ffffff;" parent="1" vertex="1"><mxGeometry x="1497.12" y="74.12999999999965" width="253.76000000000022" height="253.75" as="geometry" /></mxCell><mxCell id="node8" value="&lt;p style='margin:0px;text-align:center;margin-top:4px;;font-size:10.0px;font-family:Times,serif;color:#000000;'&gt;2.1.4 Strengthen Stakeholder Relationships&lt;/p&gt;" style="aspect=fixed;verticalAlign=top;align=left;overflow=fill;html=1;rounded=0;shadow=0;comic=0;labelBackgroundColor=none;strokeColor=black;strokeWidth=1;fillColor=#ffffff;" parent="1" vertex="1"><mxGeometry x="1060.25" y="594.1099999999997" width="251.5" height="251.50000000000023" as="geometry" /></mxCell><mxCell id="node9" value="&lt;p style='margin:0px;text-align:center;margin-top:4px;;font-size:10.0px;font-family:Times,serif;color:#000000;'&gt;2.1.5 Establish Effective Communication Channels&lt;/p&gt;" style="aspect=fixed;verticalAlign=top;align=left;overflow=fill;html=1;rounded=0;shadow=0;comic=0;labelBackgroundColor=none;strokeColor=black;strokeWidth=1;fillColor=#ffffff;" parent="1" vertex="1"><mxGeometry x="19.75" y="52.75" width="296.5" height="296.5" as="geometry" /></mxCell><mxCell id="node10" value="&lt;p style='margin:0px;text-align:center;margin-top:4px;;font-size:10.0px;font-family:Times,serif;color:#000000;'&gt;2.1.7 Eliminate Busyness and Focus on Value&lt;/p&gt;" style="aspect=fixed;verticalAlign=top;align=left;overflow=fill;html=1;rounded=0;shadow=0;comic=0;labelBackgroundColor=none;strokeColor=black;strokeWidth=1;fillColor=#ffffff;" parent="1" vertex="1"><mxGeometry x="673.12" y="68.12999999999965" width="265.76" height="265.75" as="geometry" /></mxCell><mxCell id="node26" value="&lt;p style='margin:0px;text-align:center;margin-top:4px;;font-size:10.0px;font-family:Times,serif;color:#000000;'&gt;5.1 Standardise, Consolidate, and Align Systems and Processes&lt;/p&gt;" style="ellipse;aspect=fixed;verticalAlign=top;align=left;overflow=fill;html=1;rounded=0;shadow=0;comic=0;labelBackgroundColor=none;strokeColor=#000000;strokeWidth=1;fillColor=#ffffff;" parent="1" vertex="1"><mxGeometry x="5143.14" y="1087.6899999999996" width="493.72" height="493.72" as="geometry" /></mxCell><mxCell id="node29" value="&lt;p style='margin:0px;text-align:center;margin-top:4px;;font-size:10.0px;font-family:Times,serif;color:#000000;'&gt;5.1.4 Optimise Existing Tools&lt;/p&gt;" style="aspect=fixed;verticalAlign=top;align=left;overflow=fill;html=1;rounded=0;shadow=0;comic=0;labelBackgroundColor=none;strokeColor=black;strokeWidth=1;fillColor=#ffffff;" parent="1" vertex="1"><mxGeometry x="3813.88" y="629.7399999999998" width="180.23999999999978" height="180.25" as="geometry" /></mxCell><mxCell id="node12" value="&lt;p style='margin:0px;text-align:center;margin-top:4px;;font-size:10.0px;font-family:Times,serif;color:#000000;'&gt;3.1.4 Recruitment and Talent Management&lt;/p&gt;" style="aspect=fixed;verticalAlign=top;align=left;overflow=fill;html=1;rounded=0;shadow=0;comic=0;labelBackgroundColor=none;strokeColor=black;strokeWidth=1;fillColor=#ffffff;" parent="1" vertex="1"><mxGeometry x="20.25" y="594.1099999999997" width="251.5" height="251.50000000000023" as="geometry" /></mxCell><mxCell id="node13" value="&lt;p style='margin:0px;text-align:center;margin-top:4px;;font-size:10.0px;font-family:Times,serif;color:#000000;'&gt;3.1.6 Organisational Change Management (OCM) Collaboration&lt;/p&gt;" style="aspect=fixed;verticalAlign=top;align=left;overflow=fill;html=1;rounded=0;shadow=0;comic=0;labelBackgroundColor=none;strokeColor=black;strokeWidth=1;fillColor=#ffffff;" parent="1" vertex="1"><mxGeometry x="652.0" y="534.8599999999997" width="370.0" height="370.0000000000002" as="geometry" /></mxCell><mxCell id="node14" value="&lt;p style='margin:0px;text-align:center;margin-top:4px;;font-size:10.0px;font-family:Times,serif;color:#000000;'&gt;3.1.7 Focus on Value, Benefits, and Strategy Alignment&lt;/p&gt;" style="aspect=fixed;verticalAlign=top;align=left;overflow=fill;html=1;rounded=0;shadow=0;comic=0;labelBackgroundColor=none;strokeColor=black;strokeWidth=1;fillColor=#ffffff;" parent="1" vertex="1"><mxGeometry x="334.75" y="40.75" width="320.5" height="320.5" as="geometry" /></mxCell><mxCell id="node15" value="&lt;p style='margin:0px;text-align:center;margin-top:4px;;font-size:10.0px;font-family:Times,serif;color:#000000;'&gt;3.1.9 Regular Communication Cadence&lt;/p&gt;" style="aspect=fixed;verticalAlign=top;align=left;overflow=fill;html=1;rounded=0;shadow=0;comic=0;labelBackgroundColor=none;strokeColor=black;strokeWidth=1;fillColor=#ffffff;" parent="1" vertex="1"><mxGeometry x="2615.62" y="84.62999999999965" width="232.76000000000022" height="232.75" as="geometry" /></mxCell><mxCell id="node38" value="&lt;p style='margin:0px;text-align:center;margin-top:4px;;font-size:10.0px;font-family:Times,serif;color:#000000;'&gt;Enhanced Collaboration&lt;/p&gt;" style="ellipse;shape=doubleEllipse;aspect=fixed;verticalAlign=top;align=left;overflow=fill;html=1;rounded=0;shadow=0;comic=0;labelBackgroundColor=none;strokeColor=#000000;strokeWidth=1;fillColor=#ffffff;" parent="1" vertex="1"><mxGeometry x="6974.52" y="1710.5199999999998" width="200.96" height="200.96" as="geometry" /></mxCell><mxCell id="node16" value="&lt;p style='margin:0px;text-align:center;margin-top:4px;;font-size:10.0px;font-family:Times,serif;color:#000000;'&gt;3.1.10 Cultivate a Culture of Portfolio Excellence&lt;/p&gt;" style="aspect=fixed;verticalAlign=top;align=left;overflow=fill;html=1;rounded=0;shadow=0;comic=0;labelBackgroundColor=none;strokeColor=black;strokeWidth=1;fillColor=#ffffff;" parent="1" vertex="1"><mxGeometry x="2310.25" y="57.25" width="287.5" height="287.5" as="geometry" /></mxCell><mxCell id="node17" value="&lt;p style='margin:0px;text-align:center;margin-top:4px;;font-size:10.0px;font-family:Times,serif;color:#000000;'&gt;6.1.3 Data Governance&lt;/p&gt;" style="ellipse;aspect=fixed;verticalAlign=top;align=left;overflow=fill;html=1;rounded=0;shadow=0;comic=0;labelBackgroundColor=none;strokeColor=#000000;strokeWidth=1;fillColor=#ffffff;" parent="1" vertex="1"><mxGeometry x="2478.1" y="622.9599999999999" width="193.8" height="193.8" as="geometry" /></mxCell><mxCell id="node18" value="&lt;p style='margin:0px;text-align:center;margin-top:4px;;font-size:10.0px;font-family:Times,serif;color:#000000;'&gt;6.1.4 Integration and Automation&lt;/p&gt;" style="ellipse;aspect=fixed;verticalAlign=top;align=left;overflow=fill;html=1;rounded=0;shadow=0;comic=0;labelBackgroundColor=none;strokeColor=#000000;strokeWidth=1;fillColor=#ffffff;" parent="1" vertex="1"><mxGeometry x="1208.71" y="65.71000000000001" width="270.58" height="270.58" as="geometry" /></mxCell><mxCell id="node35" value="&lt;p style='margin:0px;text-align:center;margin-top:4px;;font-size:10.0px;font-family:Times,serif;color:#000000;'&gt;6.1.6 Data Analysis and Insights&lt;/p&gt;" style="aspect=fixed;verticalAlign=top;align=left;overflow=fill;html=1;rounded=0;shadow=0;comic=0;labelBackgroundColor=none;strokeColor=black;strokeWidth=1;fillColor=#ffffff;" parent="1" vertex="1"><mxGeometry x="5906.5" y="1238.0499999999997" width="193.0" height="193.0" as="geometry" /></mxCell><mxCell id="node19" value="&lt;p style='margin:0px;text-align:center;margin-top:4px;;font-size:10.0px;font-family:Times,serif;color:#000000;'&gt;4.1 Optimise Processes and Streamline Delivery&lt;/p&gt;" style="ellipse;aspect=fixed;verticalAlign=top;align=left;overflow=fill;html=1;rounded=0;shadow=0;comic=0;labelBackgroundColor=none;strokeColor=#000000;strokeWidth=1;fillColor=#ffffff;" parent="1" vertex="1"><mxGeometry x="5435.41" y="528.2699999999999" width="383.18" height="383.18" as="geometry" /></mxCell><mxCell id="node20" value="&lt;p style='margin:0px;text-align:center;margin-top:4px;;font-size:10.0px;font-family:Times,serif;color:#000000;'&gt;4.1.1 Establish a Process Optimisation Initiative&lt;/p&gt;" style="aspect=fixed;verticalAlign=top;align=left;overflow=fill;html=1;rounded=0;shadow=0;comic=0;labelBackgroundColor=none;strokeColor=black;strokeWidth=1;fillColor=#ffffff;" parent="1" vertex="1"><mxGeometry x="5138.38" y="580.2399999999998" width="279.2399999999998" height="279.25" as="geometry" /></mxCell><mxCell id="node25" value="&lt;p style='margin:0px;text-align:center;margin-top:4px;;font-size:10.0px;font-family:Times,serif;color:#000000;'&gt;4.1.7 Continuously Improve Processes&lt;/p&gt;" style="aspect=fixed;verticalAlign=top;align=left;overflow=fill;html=1;rounded=0;shadow=0;comic=0;labelBackgroundColor=none;strokeColor=black;strokeWidth=1;fillColor=#ffffff;" parent="1" vertex="1"><mxGeometry x="4713.62" y="1221.1699999999998" width="226.76000000000022" height="226.75" as="geometry" /></mxCell><mxCell id="node22" value="&lt;p style='margin:0px;text-align:center;margin-top:4px;;font-size:10.0px;font-family:Times,serif;color:#000000;'&gt;4.1.3 Automation and Workflow Automation&lt;/p&gt;" style="aspect=fixed;verticalAlign=top;align=left;overflow=fill;html=1;rounded=0;shadow=0;comic=0;labelBackgroundColor=none;strokeColor=black;strokeWidth=1;fillColor=#ffffff;" parent="1" vertex="1"><mxGeometry x="3994.0" y="1679.9999999999998" width="262.0" height="262.0" as="geometry" /></mxCell><mxCell id="node37" value="&lt;p style='margin:0px;text-align:center;margin-top:4px;;font-size:10.0px;font-family:Times,serif;color:#000000;'&gt;Poor Resource Management&lt;/p&gt;" style="rhombus;verticalAlign=top;align=left;overflow=fill;html=1;rounded=0;shadow=0;comic=0;labelBackgroundColor=none;strokeColor=black;strokeWidth=1;fillColor=#ffffff;" parent="1" vertex="1"><mxGeometry x="3959.73" y="2230.92" width="330.5400000000004" height="35.999999999999545" as="geometry" /></mxCell><mxCell id="node23" value="&lt;p style='margin:0px;text-align:center;margin-top:4px;;font-size:10.0px;font-family:Times,serif;color:#000000;'&gt;4.1.4 Develop a Value-Driven Portfolio Pipeline&lt;/p&gt;" style="aspect=fixed;verticalAlign=top;align=left;overflow=fill;html=1;rounded=0;shadow=0;comic=0;labelBackgroundColor=none;strokeColor=black;strokeWidth=1;fillColor=#ffffff;" parent="1" vertex="1"><mxGeometry x="4257.75" y="580.6099999999997" width="278.5" height="278.5000000000002" as="geometry" /></mxCell><mxCell id="node24" value="&lt;p style='margin:0px;text-align:center;margin-top:4px;;font-size:10.0px;font-family:Times,serif;color:#000000;'&gt;4.1.5 Embed ePMO Processes into Work Practices&lt;/p&gt;" style="aspect=fixed;verticalAlign=top;align=left;overflow=fill;html=1;rounded=0;shadow=0;comic=0;labelBackgroundColor=none;strokeColor=black;strokeWidth=1;fillColor=#ffffff;" parent="1" vertex="1"><mxGeometry x="4554.25" y="573.1099999999997" width="293.5" height="293.5000000000002" as="geometry" /></mxCell><mxCell id="node42" value="&lt;p style='margin:0px;text-align:center;margin-top:4px;;font-size:10.0px;font-family:Times,serif;color:#000000;'&gt;Better Resource Management&lt;/p&gt;" style="ellipse;shape=doubleEllipse;aspect=fixed;verticalAlign=top;align=left;overflow=fill;html=1;rounded=0;shadow=0;comic=0;labelBackgroundColor=none;strokeColor=#000000;strokeWidth=1;fillColor=#ffffff;" parent="1" vertex="1"><mxGeometry x="6335.02" y="1689.0199999999998" width="243.96" height="243.96" as="geometry" /></mxCell><mxCell id="node27" value="&lt;p style='margin:0px;text-align:center;margin-top:4px;;font-size:10.0px;font-family:Times,serif;color:#000000;'&gt;5.1.1 Standardise Systems and Repositories&lt;/p&gt;" style="aspect=fixed;verticalAlign=top;align=left;overflow=fill;html=1;rounded=0;shadow=0;comic=0;labelBackgroundColor=none;strokeColor=black;strokeWidth=1;fillColor=#ffffff;" parent="1" vertex="1"><mxGeometry x="4865.75" y="592.6099999999997" width="254.5" height="254.50000000000023" as="geometry" /></mxCell><mxCell id="node28" value="&lt;p style='margin:0px;text-align:center;margin-top:4px;;font-size:10.0px;font-family:Times,serif;color:#000000;'&gt;5.1.3 Increase visibility and reporting&lt;/p&gt;" style="aspect=fixed;verticalAlign=top;align=left;overflow=fill;html=1;rounded=0;shadow=0;comic=0;labelBackgroundColor=none;strokeColor=black;strokeWidth=1;fillColor=#ffffff;" parent="1" vertex="1"><mxGeometry x="4015.62" y="1224.1699999999998" width="220.76000000000022" height="220.75" as="geometry" /></mxCell><mxCell id="node30" value="&lt;p style='margin:0px;text-align:center;margin-top:4px;;font-size:10.0px;font-family:Times,serif;color:#000000;'&gt;5.1.5 Systems Architecture and Clarity&lt;/p&gt;" style="aspect=fixed;verticalAlign=top;align=left;overflow=fill;html=1;rounded=0;shadow=0;comic=0;labelBackgroundColor=none;strokeColor=black;strokeWidth=1;fillColor=#ffffff;" parent="1" vertex="1"><mxGeometry x="4011.88" y="605.7399999999998" width="228.23999999999978" height="228.25" as="geometry" /></mxCell><mxCell id="node31" value="&lt;p style='margin:0px;text-align:center;margin-top:4px;;font-size:10.0px;font-family:Times,serif;color:#000000;'&gt;5.1.7 Online or Mobile/app Capability&lt;/p&gt;" style="aspect=fixed;verticalAlign=top;align=left;overflow=fill;html=1;rounded=0;shadow=0;comic=0;labelBackgroundColor=none;strokeColor=black;strokeWidth=1;fillColor=#ffffff;" parent="1" vertex="1"><mxGeometry x="3570.0" y="606.8599999999997" width="226.0" height="226.00000000000023" as="geometry" /></mxCell><mxCell id="node32" value="&lt;p style='margin:0px;text-align:center;margin-top:4px;;font-size:10.0px;font-family:Times,serif;color:#000000;'&gt;5.1.8 Consolidated ePMO Functions&lt;/p&gt;" style="aspect=fixed;verticalAlign=top;align=left;overflow=fill;html=1;rounded=0;shadow=0;comic=0;labelBackgroundColor=none;strokeColor=black;strokeWidth=1;fillColor=#ffffff;" parent="1" vertex="1"><mxGeometry x="5836.25" y="612.1099999999997" width="215.5" height="215.50000000000023" as="geometry" /></mxCell><mxCell id="node33" value="&lt;p style='margin:0px;text-align:center;margin-top:4px;;font-size:10.0px;font-family:Times,serif;color:#000000;'&gt;6.1 Establish a Centralised &#8220;Project&#8221; Data Management System&lt;/p&gt;" style="ellipse;aspect=fixed;verticalAlign=top;align=left;overflow=fill;html=1;rounded=0;shadow=0;comic=0;labelBackgroundColor=none;strokeColor=#000000;strokeWidth=1;fillColor=#ffffff;" parent="1" vertex="1"><mxGeometry x="2872.09" y="470.94999999999993" width="497.82" height="497.82" as="geometry" /></mxCell><mxCell id="node34" value="&lt;p style='margin:0px;text-align:center;margin-top:4px;;font-size:10.0px;font-family:Times,serif;color:#000000;'&gt;6.1.2 Reporting Dashboard&lt;/p&gt;" style="aspect=fixed;verticalAlign=top;align=left;overflow=fill;html=1;rounded=0;shadow=0;comic=0;labelBackgroundColor=none;strokeColor=black;strokeWidth=1;fillColor=#ffffff;" parent="1" vertex="1"><mxGeometry x="3388.12" y="637.9899999999998" width="163.76000000000022" height="163.75" as="geometry" /></mxCell><mxCell id="node36" value="&lt;p style='margin:0px;text-align:center;margin-top:4px;;font-size:10.0px;font-family:Times,serif;color:#000000;'&gt;6.1.7 Change Management and Training&lt;/p&gt;" style="aspect=fixed;verticalAlign=top;align=left;overflow=fill;html=1;rounded=0;shadow=0;comic=0;labelBackgroundColor=none;strokeColor=black;strokeWidth=1;fillColor=#ffffff;" parent="1" vertex="1"><mxGeometry x="6069.38" y="601.2399999999998" width="237.23999999999978" height="237.25" as="geometry" /></mxCell><mxCell id="node41" value="&lt;p style='margin:0px;text-align:center;margin-top:4px;;font-size:10.0px;font-family:Times,serif;color:#000000;'&gt;Improved Governance &amp; Decision Making&lt;/p&gt;" style="ellipse;shape=doubleEllipse;aspect=fixed;verticalAlign=top;align=left;overflow=fill;html=1;rounded=0;shadow=0;comic=0;labelBackgroundColor=none;strokeColor=#000000;strokeWidth=1;fillColor=#ffffff;" parent="1" vertex="1"><mxGeometry x="6605.37" y="1639.37" width="343.26" height="343.26" as="geometry" /></mxCell><mxCell id="node39" value="&lt;p style='margin:0px;text-align:center;margin-top:4px;;font-size:10.0px;font-family:Times,serif;color:#000000;'&gt;Continuous Improvement&lt;/p&gt;" style="ellipse;shape=doubleEllipse;aspect=fixed;verticalAlign=top;align=left;overflow=fill;html=1;rounded=0;shadow=0;comic=0;labelBackgroundColor=none;strokeColor=#000000;strokeWidth=1;fillColor=#ffffff;" parent="1" vertex="1"><mxGeometry x="6450.37" y="2515.2099999999996" width="213.26" height="213.26" as="geometry" /></mxCell><mxCell id="node40" value="&lt;p style='margin:0px;text-align:center;margin-top:4px;;font-size:10.0px;font-family:Times,serif;color:#000000;'&gt;Cost Savings, Improved Quality, &amp; Increased Efficiency&lt;/p&gt;" style="ellipse;shape=doubleEllipse;aspect=fixed;verticalAlign=top;align=left;overflow=fill;html=1;rounded=0;shadow=0;comic=0;labelBackgroundColor=none;strokeColor=#000000;strokeWidth=1;fillColor=#ffffff;" parent="1" vertex="1"><mxGeometry x="6334.7" y="2026.6199999999997" width="444.6" height="444.6" as="geometry" /></mxCell></root></mxGraphModel></diagram></mxfile>